<svg xmlns="http://www.w3.org/2000/svg" viewBox="0 0 1046 1107" width="1046" height="1107">
  <g transform="translate(85,85)">
    <g transform="translate(0.0,0)" fill="#1B2021">
      <path d="M876.0,0.0 L414.0,646.0 L876.0,644.0 L874.0,437.0 L748.0,437.0 L747.0,511.0 L777.0,513.0 L776.0,555.0 L589.0,555.0 L774.0,293.0 L778.0,334.0 L876.0,332.0 Z"></path><path d="M675.0,0.0 L220.0,646.0 L330.0,645.0 L680.0,149.0 Z"></path><path d="M457.0,0.0 L1.0,646.0 L114.0,642.0 L462.0,149.0 Z"></path>
    </g>
    <rect x="6.6" y="771.0" width="862.9" height="2.4" fill="#1B2021" opacity="0.5"></rect>
    <g fill="#1B2021">
    <g transform="translate(6.57,992.00) scale(0.15000,-0.15000)"><path d="M68 0V706H180L458 273H401L678 706H791V0H634V441L662 434L481 152H377L197 434L224 441V0Z"></path></g>
    <g transform="translate(176.05,992.00) scale(0.15000,-0.15000)"><path d="M401 -11Q324 -11 256.5 17.0Q189 45 139.0 94.5Q89 144 60.5 210.5Q32 277 32 354Q32 431 61.0 497.0Q90 563 141.5 612.5Q193 662 262.0 689.5Q331 717 410 717Q501 717 575.5 684.0Q650 651 699 593L592 486Q558 530 512.0 552.0Q466 574 408 574Q346 574 297.0 546.5Q248 519 220.5 469.5Q193 420 193 354Q193 288 220.0 238.0Q247 188 294.0 160.0Q341 132 402 132Q464 132 507.5 155.5Q551 179 574.5 223.5Q598 268 598 332L702 262L387 267V400H758V377Q758 250 712.5 163.5Q667 77 586.5 33.0Q506 -11 401 -11Z"></path></g>
    <g transform="translate(334.58,992.00) scale(0.15000,-0.15000)"><path d="M266 0V674H360V0ZM30 608V694H595V608Z"></path></g>
    <g transform="translate(469.12,992.00) scale(0.15000,-0.15000)"><path d="M82 0V694H176V0ZM146 0V86H544V0ZM146 314V396H511V314ZM146 608V694H539V608Z"></path></g>
    <g transform="translate(598.40,992.00) scale(0.15000,-0.15000)"><path d="M31 0 315 694H383L666 0H564L331 587H366L131 0ZM166 157V239H531V157Z"></path></g>
    <g transform="translate(743.58,992.00) scale(0.15000,-0.15000)"><path d="M82 0V694H148L442 211H397L691 694H757V0H663V529L685 523L453 142H387L155 523L176 529V0Z"></path></g>
    </g>
  </g>
</svg>